<!DOCTYPE svg PUBLIC "-//W3C//DTD SVG 1.1//EN" "http://www.w3.org/Graphics/SVG/1.1/DTD/svg11.dtd">
<!-- Uploaded to: SVG Repo, www.svgrepo.com, Transformed by: SVG Repo Mixer Tools -->
<svg width="800px" height="800px" viewBox="0 0 128 128" xmlns="http://www.w3.org/2000/svg" fill="#a264e4" stroke="#a264e4">
<g id="SVGRepo_bgCarrier" stroke-width="0"/>
<g id="SVGRepo_tracerCarrier" stroke-linecap="round" stroke-linejoin="round"/>
<g id="SVGRepo_iconCarrier"> <defs> <style>.cls-1{fill:#231f20;}</style> </defs> <g data-name="Eco Recycle" id="Eco_Recycle"> <path class="cls-1" d="M39.48,58.46a1,1,0,0,0,1.37-.33L57.31,31.31,64,20.41,86.35,56.83l-7,1.17a1,1,0,0,0,.16,2h.17l8.22-1.37H88a1,1,0,0,0,.52-.15.81.81,0,0,0,.19-.18h0l.13-.17a1.6,1.6,0,0,0,.1-.23s0,0,0,0a1,1,0,0,0,0-.1l1.41-8.48a1,1,0,0,0-.82-1.15,1,1,0,0,0-1.15.82l-1,5.9L64.85,18s0,0,0,0l-.06-.08a1.07,1.07,0,0,0-.16-.14.34.34,0,0,0-.09-.08,1,1,0,0,0-1.16.1.77.77,0,0,0-.21.23l-14,22.81h0l-10,16.29A1,1,0,0,0,39.48,58.46Z"/> <path class="cls-1" d="M60,96H17.79L36,66.39l1,5.84a1,1,0,0,0,1,.84h.16a1,1,0,0,0,.82-1.15l-1.41-8.49s0,0,0-.05v0a.86.86,0,0,0-.15-.32l0,0a1,1,0,0,0-.63-.4l-8.49-1.42a1,1,0,0,0-.33,2l7,1.17L15.15,96.48a1,1,0,0,0,0,1A1,1,0,0,0,16,98H60a1,1,0,0,0,0-2Z"/> <path class="cls-1" d="M112.85,96.48l-21-34.22a1,1,0,0,0-1.7,1L110.21,96H66.94l3.87-5.42a1,1,0,1,0-1.62-1.16l-5,7a.67.67,0,0,0-.06.12l-.06.11a1.05,1.05,0,0,0,0,.7.54.54,0,0,1,.05.11s0,.08.07.12l5,7A1,1,0,0,0,70,105a1,1,0,0,0,.58-.19,1,1,0,0,0,.23-1.39L66.94,98H112a1,1,0,0,0,.87-.51A1,1,0,0,0,112.85,96.48Z"/> <path class="cls-1" d="M64.75,70.65,67,68.09A12.19,12.19,0,0,0,67,52l-2.22-2.56a1,1,0,0,0-1.5,0L61,52a12.19,12.19,0,0,0,0,16.14l2.22,2.56a1,1,0,0,0,1.5,0Zm-2.21-3.87a10.21,10.21,0,0,1,0-13.52L64,51.57l1.46,1.69a10.21,10.21,0,0,1,0,13.52L64,68.47Z"/> <path class="cls-1" d="M78.05,65.37l-2.76.21h0a10.32,10.32,0,0,0-9.54,9.54l-.21,2.76a1,1,0,0,0,.29.78,1,1,0,0,0,.71.29h.08l2.75-.21a10.31,10.31,0,0,0,9.54-9.54l.21-2.76a1,1,0,0,0-.29-.78A1,1,0,0,0,78.05,65.37Zm-1.13,3.68a8.32,8.32,0,0,1-7.7,7.69l-1.59.13.12-1.6a8.31,8.31,0,0,1,7.7-7.69h0L77,67.45Z"/> <path class="cls-1" d="M52.71,65.58h0L50,65.37a1,1,0,0,0-.78.29,1,1,0,0,0-.29.78l.21,2.76a10.31,10.31,0,0,0,9.54,9.54l2.75.21h.08a1,1,0,0,0,.71-.29,1,1,0,0,0,.29-.78l-.21-2.76A10.32,10.32,0,0,0,52.71,65.58Zm6.07,11.16a8.32,8.32,0,0,1-7.7-7.69L51,67.45l1.59.13a8.31,8.31,0,0,1,7.7,7.69l.12,1.6Z"/> </g> </g>
</svg>