<!DOCTYPE svg PUBLIC "-//W3C//DTD SVG 1.1//EN" "http://www.w3.org/Graphics/SVG/1.1/DTD/svg11.dtd">
<!-- Uploaded to: SVG Repo, www.svgrepo.com, Transformed by: SVG Repo Mixer Tools -->
<svg version="1.1" id="svg29691" xmlns:dc="http://purl.org/dc/elements/1.1/" xmlns:rdf="http://www.w3.org/1999/02/22-rdf-syntax-ns#" inkscape:version="0.91 r" sodipodi:docname="4-6 Network Logo.svg" xmlns:cc="http://creativecommons.org/ns#" xmlns:svg="http://www.w3.org/2000/svg" xmlns:sodipodi="http://sodipodi.sourceforge.net/DTD/sodipodi-0.dtd" xmlns:inkscape="http://www.inkscape.org/namespaces/inkscape" xmlns="http://www.w3.org/2000/svg" xmlns:xlink="http://www.w3.org/1999/xlink" viewBox="-202 3.9 554.1 554.1" xml:space="preserve" width="800px" height="800px" fill="#bb8cee">
<g id="SVGRepo_bgCarrier" stroke-width="0"/>
<g id="SVGRepo_tracerCarrier" stroke-linecap="round" stroke-linejoin="round"/>
<g id="SVGRepo_iconCarrier"> <title id="title3398">Network Icon</title> <sodipodi:namedview fit-margin-bottom="0" fit-margin-right="0" inkscape:current-layer="svg29691" inkscape:window-maximized="1" inkscape:window-y="24" inkscape:pageopacity="0" inkscape:window-height="744" inkscape:window-x="65" inkscape:window-width="959" inkscape:pageshadow="2" fit-margin-left="0" fit-margin-top="0" showguides="false" inkscape:cy="33.058937" inkscape:cx="682.08488" inkscape:zoom="0.51505985" showgrid="false" guidetolerance="10" gridtolerance="10" objecttolerance="10" borderopacity="1" bordercolor="#666666" pagecolor="#ffffff" id="namedview3451"> </sodipodi:namedview> <path d="M254.6,99.3C205.5,50.1,140.1,23.1,70.5,23.1C1,23.1-64.4,50.1-113.6,99.3s-76.3,114.6-76.3,184.1 c0,69.5,27.1,134.9,76.3,184.1C-64.4,516.7,1,543.8,70.5,543.8c69.5,0,134.9-27.1,184.1-76.3s76.3-114.6,76.3-184.1 C330.9,213.9,303.8,148.5,254.6,99.3z M295.4,280.7c-11.9-29.5-27.7-57-47-81.7c11.8,3.1,23.4,6.9,34.6,11.3 C290.9,232.9,295.1,256.7,295.4,280.7z M273.3,186.4c-14.7-4.9-29.8-8.8-45.3-11.4c-24.4-26-52.7-48.1-84.1-65.4 c10.2-9,21-17.2,32.3-24.7C218.6,107.5,252.6,143.1,273.3,186.4z M197.2,171.3c-7.2-0.5-14.4-0.8-21.6-0.8c-2.5,0-5,0-7.5,0.1 c-4.6-9.1-13.9-14.8-24.1-14.8c-12.2,0-22.9,8.3-26,20.1c-11.9,2.3-23.6,5.2-35.1,8.8c12.7-22.5,28.3-43.1,46.3-61.4 C154,136.4,176.8,152.5,197.2,171.3z M9.2,67c19.9-5.7,40.6-8.5,61.3-8.6c29.4,0,58.5,5.8,85.7,17.1c-10.7,7.6-20.9,15.9-30.5,24.8 C89.5,83.1,49.8,72.1,7.9,68.7C8.3,68.1,8.8,67.6,9.2,67z M111.2,114.6L111.2,114.6C89,138,70.4,164.9,56.4,194.4 c-20.9,8.7-40.6,19.7-58.8,32.6c-8.2-0.5-16.4-0.8-24.7-0.8c-9.9,0-19.8,0.4-29.7,1.1c1.8-13.4,4.4-26.5,7.8-39.3 c16.5-0.6,29.8-14.1,29.8-30.8c0-9.4-4.2-17.8-10.8-23.4c7.2-16.3,15.7-31.9,25.2-46.7C36.4,89,75.5,98.6,111.2,114.6z M45.4,220.5 c-1.4,3.8-2.7,7.7-4,11.6c-4.5-0.8-8.9-1.5-13.4-2.1C33.6,226.7,39.4,223.5,45.4,220.5z M-58.9,246.7c10.5-0.9,21.1-1.3,31.8-1.3 c0.4,0,0.7,0,1.1,0c-12.2,10.5-23.6,22-34,34.2c0-1.5,0-3.1,0-4.6C-60,265.5-59.6,256.1-58.9,246.7z M-39.4,87.4 c4.1-0.2,8.2-0.5,12.3-0.6l0,0c-7.6,12.7-14.5,26-20.6,39.7c-0.8-0.1-1.5-0.1-2.3-0.1c-17,0-30.8,13.8-30.8,30.8 c0,10.6,5.3,19.9,13.5,25.5c-3.9,15.2-7,30.7-8.9,46.6c-25.5,3.1-50.5,8.8-74.8,16.7C-139.7,178.9-98.7,120.7-39.4,87.4z M-122.5,398.6c-20.8-34.8-31.9-74.6-32-115.2c0.1-5.5,0.3-11,0.8-16.5c24.4-8.5,49.6-14.6,75.4-18.1c-0.6,8.7-0.9,17.4-0.9,26.2 c0,9.5,0.4,18.8,1.1,28.1C-98,331.8-113.1,364-122.5,398.6z M-5.9,494.7c-40.5-14.6-76-40.6-102.2-74.8c6.5-31.1,18-60.4,33.5-86.9 c2.2,14,5.3,27.7,9,41.1c-6.1,5.1-9.7,12.7-9.7,20.7c0,14.8,11.9,26.8,26.7,26.9C-37.1,447.8-22.8,472.3-5.9,494.7L-5.9,494.7z M70.5,508.4c-14.9,0-29.7-1.5-44.3-4.4C3,477.6-16.2,447.6-30.6,415.1c5.9-5.1,9.2-12.5,9.2-20.3c0-14.5-11.6-26.4-26.1-26.9 c-5.3-19.2-9-39.1-11-59.5c17.3-23.6,38-44.4,61.4-61.8c11.1,0.9,22.1,2.2,33,4c-6.2,24.5-9.6,50.1-9.6,76.5 c0,41.5,8.2,81,23.1,117.1c-4.8,5-7.5,11.7-7.5,18.6c0,14.9,12.1,27,27,27c0,0,0,0,0,0c1.2,0,2.5-0.1,3.7-0.3 c3.9,6.3,8,12.4,12.3,18.4C80.2,508.2,75.4,508.4,70.5,508.4z M107,505.4c-6.3-8-12.1-16.4-17.5-25c4.2-4.9,6.5-11.1,6.5-17.5 c0-14.9-12.1-27-27-27c-0.7,0-1.5,0-2.2,0.1c-13.7-33.6-21.2-70.3-21.2-108.9c0-25.2,3.2-49.6,9.2-72.8c20,4.4,39.5,10.4,58.5,17.8 c-0.2,1.3-0.3,2.7-0.3,4.1c0,17,13.8,30.8,30.8,30.8c8.7,0,16.5-3.6,22.1-9.4c28.1,16.4,54.3,36.5,77.7,59.9 c9.4,9.4,18.1,19.2,26.4,29.4C237.4,449.9,177,493.8,107,505.4z M290.9,328.6c-2.8,13.4-6.8,26.4-11.9,39.1 c-6.9-8.1-14.2-16-21.8-23.6c-25-25-52.9-46.3-82.9-63.6c0.2-1.4,0.3-2.8,0.3-4.2c0-17-13.8-30.8-30.8-30.8 c-8.7,0-16.6,3.6-22.2,9.4c-19.9-7.9-40.4-14.3-61.4-19c3-9.1,6.4-17.9,10.3-26.6c15.9-6.2,32.4-11,49.5-14.3 c4.6,9,13.9,14.7,24,14.7c12.2,0,22.8-8.2,26-20c1.9,0,3.7-0.1,5.6-0.1c14.6,0,29,1.1,43,3.2C252.8,231,278,277.3,290.9,328.6 C290.9,328.6,290.9,328.6,290.9,328.6z"/> </g>
</svg>