<!DOCTYPE svg PUBLIC "-//W3C//DTD SVG 1.1//EN" "http://www.w3.org/Graphics/SVG/1.1/DTD/svg11.dtd">
<!-- Uploaded to: SVG Repo, www.svgrepo.com, Transformed by: SVG Repo Mixer Tools -->
<svg version="1.1" id="Layer_1" xmlns="http://www.w3.org/2000/svg" xmlns:xlink="http://www.w3.org/1999/xlink" viewBox="0 0 511.999 511.999" xml:space="preserve" width="800px" height="800px" fill="#bb8cee">
<g id="SVGRepo_bgCarrier" stroke-width="0"/>
<g id="SVGRepo_tracerCarrier" stroke-linecap="round" stroke-linejoin="round"/>
<g id="SVGRepo_iconCarrier"> <path style="fill:#a264e4;" d="M399.129,130.861c-11.45,0-22.46,1.872-32.699,5.284c-22.02-54.719-75.419-93.364-137.955-93.364 c-82.134,0-148.633,66.499-148.633,148.633v0.11c-39.745,1.433-71.564,34.131-71.564,74.207c0,41.067,33.25,74.317,74.317,74.317 c23.781,0,286.257,0,316.534,0c57.803,0,104.594-46.792,104.594-104.594S456.931,130.861,399.129,130.861z"/> <path style="fill:#bb8cee;" d="M130.929,79.419c-31.254,27.241-51.087,67.246-51.087,111.996v0.11 c-39.746,1.433-71.565,34.131-71.565,74.207c0,41.067,33.25,74.317,74.317,74.317c23.781,0,286.257,0,316.534,0 c19.784,0,38.209-5.582,53.978-15.11C298.731,304.262,173.758,207.097,130.929,79.419z"/> <path d="M145.906,348.327H82.594C37.051,348.327,0,311.275,0,265.732c0-21.509,8.241-41.875,23.204-57.349 c13.098-13.543,30.108-22.074,48.542-24.482c3.982-83.102,72.759-149.396,156.729-149.396c24.987,0,49.843,6.026,71.885,17.427 l-7.607,14.704C272.772,56.3,251.145,51.06,228.474,51.06c-77.393,0-140.356,62.963-140.356,140.356v7.985l-7.979,0.397 c-17.106,0.616-33.099,7.752-45.035,20.094c-11.961,12.369-18.55,28.65-18.55,45.84c0,36.414,29.626,66.039,66.04,66.039h63.312 L145.906,348.327L145.906,348.327z"/> <path d="M399.129,348.327h-231.21v-16.554h231.21c53.109,0,96.316-43.207,96.316-96.316c0-53.11-43.207-96.317-96.316-96.317 c-10.287,0-20.408,1.634-30.082,4.86l-7.389,2.463l-2.908-7.225c-10.062-25.004-26.997-46.51-48.974-62.194l9.616-13.475 c22.5,16.056,40.268,37.576,51.735,62.564c9.11-2.356,18.498-3.547,28.001-3.547c62.238,0,112.87,50.633,112.87,112.871 C512,297.692,461.367,348.327,399.129,348.327z"/> <polygon points="260.673,477.493 234.17,445.954 256.19,419.86 234.17,393.656 260.685,362.236 273.336,372.912 255.811,393.678 277.831,419.883 255.811,445.976 273.348,466.843 "/> <polygon points="376.276,477.493 349.773,445.954 371.793,419.86 349.773,393.656 376.288,362.236 388.939,372.912 371.414,393.678 393.434,419.883 371.414,445.976 388.951,466.843 "/> <polygon points="150.574,477.493 124.071,445.954 146.09,419.86 124.071,393.656 150.585,362.236 163.236,372.912 145.712,393.678 167.731,419.883 145.712,445.976 163.248,466.843 "/> <path d="M137.663,163.891h-16.554c0-25.295,14.524-49.04,42.001-68.666c19.978-14.27,39.731-21.406,40.562-21.703l5.568,15.59 l-2.783-7.795l2.79,7.793C208.53,89.367,137.663,115.375,137.663,163.891z"/> <g> <rect x="118.375" y="177.64" style="fill:#FFFFFF;" width="22.02" height="16.554"/> <path style="fill:#FFFFFF;" d="M217.466,304.287c-34.919,0-63.327-28.409-63.327-63.326s28.409-63.326,63.327-63.326 c11.289,0,22.26,2.947,31.726,8.522l-8.402,14.264c-6.921-4.077-14.987-6.231-23.324-6.231c-25.791,0-46.773,20.982-46.773,46.772 s20.982,46.772,46.773,46.772c8.36,0,16.222-2.105,23.367-6.255l8.316,14.314C239.582,301.349,228.626,304.287,217.466,304.287z"/> <path style="fill:#FFFFFF;" d="M300.039,304.287c-13.058,0-25.138-6.982-34.015-19.659c-8.253-11.783-12.797-27.292-12.797-43.667 s4.544-31.885,12.797-43.667c8.878-12.677,20.957-19.659,34.015-19.659c13.058,0,25.137,6.982,34.015,19.659 c8.253,11.783,12.797,27.292,12.797,43.667c0,16.377-4.544,31.885-12.797,43.667C325.179,297.305,313.097,304.287,300.039,304.287z M300.039,194.188c-16.401,0-30.257,21.419-30.257,46.772s13.856,46.772,30.257,46.772c16.401,0,30.257-21.419,30.257-46.772 S316.441,194.188,300.039,194.188z"/> <polygon style="fill:#FFFFFF;" points="426.653,304.287 359.379,304.287 377.008,260.208 407.366,260.208 407.366,232.723 385.386,232.723 385.386,240.96 368.832,240.96 368.832,216.168 423.92,216.168 423.92,276.762 388.218,276.762 383.829,287.732 426.653,287.732 "/> <rect x="52.312" y="271.216" style="fill:#FFFFFF;" width="22.02" height="16.554"/> </g> <rect x="74.34" y="249.199" width="22.02" height="16.554"/> </g>
</svg>