<!DOCTYPE svg PUBLIC "-//W3C//DTD SVG 1.1//EN" "http://www.w3.org/Graphics/SVG/1.1/DTD/svg11.dtd">
<!-- Uploaded to: SVG Repo, www.svgrepo.com, Transformed by: SVG Repo Mixer Tools -->
<svg fill="#bb8cee" version="1.1" id="Layer_1" xmlns="http://www.w3.org/2000/svg" xmlns:xlink="http://www.w3.org/1999/xlink" width="800px" height="800px" viewBox="0 0 256 241" enable-background="new 0 0 256 241" xml:space="preserve" stroke="#bb8cee">
<g id="SVGRepo_bgCarrier" stroke-width="0"/>
<g id="SVGRepo_tracerCarrier" stroke-linecap="round" stroke-linejoin="round"/>
<g id="SVGRepo_iconCarrier"> <path d="M254,188V2H2v186h111v29H75v22h106v-22h-38v-29H254z M19,19h217v151H19L19,19z M100.59,138.49l-1.447-13.313l11.757,3.003 l-1.519-13.096l11.395,2.93l-1.519-13.24l14.868,3.003l9.08-9.08c8.791,1.917,18.377-0.506,25.25-7.38 c10.708-10.708,10.744-28.036,0-38.78s-28-10.636-38.672,0.036c-6.801,6.801-9.297,16.315-7.452,25.033L79.5,120.438l0.506,19.535 L100.59,138.49z M155.143,65.922c-2.351-2.351-2.388-6.222,0-8.61c2.388-2.388,6.222-2.388,8.61,0c2.388,2.388,2.388,6.222,0,8.61 C161.329,68.345,157.494,68.273,155.143,65.922z"/> </g>
</svg>